<svg xmlns="http://www.w3.org/2000/svg" viewBox="0 0 400 250" fill="none">
  <rect width="400" height="250" rx="12" fill="#1e293b"/>
  <rect x="40" y="30" width="320" height="190" rx="8" fill="#0f172a" stroke="#334155" stroke-width="1"/>
  <rect x="60" y="50" width="280" height="30" rx="4" fill="#334155"/>
  <circle cx="78" cy="65" r="8" fill="#475569"/>
  <rect x="95" y="60" width="60" height="10" rx="3" fill="#475569"/>
  <rect x="280" y="58" width="40" height="14" rx="7" fill="#2563eb" opacity="0.6"/>
  <rect x="60" y="95" width="170" height="100" rx="6" fill="#1e293b" stroke="#334155" stroke-width="1"/>
  <rect x="75" y="110" width="100" height="10" rx="3" fill="#e2e8f0" opacity="0.8"/>
  <rect x="75" y="128" width="140" height="6" rx="3" fill="#94a3b8" opacity="0.5"/>
  <rect x="75" y="140" width="120" height="6" rx="3" fill="#94a3b8" opacity="0.5"/>
  <rect x="75" y="158" width="80" height="24" rx="6" fill="#2563eb"/>
  <rect x="250" y="95" width="90" height="100" rx="6" fill="#1e293b" stroke="#334155" stroke-width="1"/>
  <rect x="262" y="108" width="66" height="50" rx="4" fill="#334155"/>
  <rect x="262" y="166" width="66" height="6" rx="3" fill="#94a3b8" opacity="0.5"/>
  <rect x="262" y="178" width="44" height="6" rx="3" fill="#94a3b8" opacity="0.3"/>
</svg>
