<svg xmlns="http://www.w3.org/2000/svg" viewBox="0 0 400 250" fill="none">
  <rect width="400" height="250" rx="12" fill="#1e293b"/>
  <rect x="50" y="40" width="130" height="170" rx="8" fill="#0f172a" stroke="#2563eb" stroke-width="1.5"/>
  <rect x="65" y="55" width="100" height="12" rx="3" fill="#2563eb" opacity="0.7"/>
  <rect x="65" y="78" width="40" height="6" rx="3" fill="#22c55e" opacity="0.7"/>
  <rect x="110" y="78" width="50" height="6" rx="3" fill="#94a3b8" opacity="0.5"/>
  <rect x="65" y="94" width="40" height="6" rx="3" fill="#eab308" opacity="0.7"/>
  <rect x="110" y="94" width="50" height="6" rx="3" fill="#94a3b8" opacity="0.5"/>
  <rect x="65" y="110" width="40" height="6" rx="3" fill="#ef4444" opacity="0.7"/>
  <rect x="110" y="110" width="50" height="6" rx="3" fill="#94a3b8" opacity="0.5"/>
  <rect x="65" y="130" width="100" height="1" fill="#334155"/>
  <rect x="65" y="142" width="40" height="6" rx="3" fill="#06b6d4" opacity="0.7"/>
  <rect x="110" y="142" width="50" height="6" rx="3" fill="#94a3b8" opacity="0.5"/>
  <rect x="65" y="158" width="40" height="6" rx="3" fill="#a855f7" opacity="0.7"/>
  <rect x="110" y="158" width="50" height="6" rx="3" fill="#94a3b8" opacity="0.5"/>
  <path d="M220 90 L280 90" stroke="#334155" stroke-width="2" stroke-dasharray="6 4"/>
  <path d="M280 90 L274 84 M280 90 L274 96" stroke="#334155" stroke-width="2"/>
  <rect x="220" y="78" width="30" height="12" rx="3" fill="#22c55e" opacity="0.8"/>
  <text x="227" y="87" fill="white" font-size="7" font-family="monospace">GET</text>
  <path d="M220 130 L280 130" stroke="#334155" stroke-width="2" stroke-dasharray="6 4"/>
  <path d="M280 130 L274 124 M280 130 L274 136" stroke="#334155" stroke-width="2"/>
  <rect x="220" y="118" width="35" height="12" rx="3" fill="#2563eb" opacity="0.8"/>
  <text x="225" y="127" fill="white" font-size="7" font-family="monospace">POST</text>
  <path d="M220 170 L280 170" stroke="#334155" stroke-width="2" stroke-dasharray="6 4"/>
  <path d="M220 170 L226 164 M220 170 L226 176" stroke="#334155" stroke-width="2"/>
  <rect x="300" y="60" width="60" height="80" rx="6" fill="#0f172a" stroke="#06b6d4" stroke-width="1.5"/>
  <rect x="310" y="75" width="40" height="6" rx="3" fill="#06b6d4" opacity="0.5"/>
  <rect x="310" y="88" width="40" height="6" rx="3" fill="#334155"/>
  <rect x="310" y="101" width="40" height="6" rx="3" fill="#334155"/>
  <rect x="310" y="114" width="40" height="6" rx="3" fill="#334155"/>
  <text x="315" y="155" fill="#94a3b8" font-size="8" font-family="monospace">JSON</text>
</svg>
