<svg xmlns="http://www.w3.org/2000/svg" viewBox="0 0 400 250" fill="none">
  <rect width="400" height="250" rx="12" fill="#1e293b"/>
  <rect x="30" y="30" width="340" height="190" rx="8" fill="#0f172a" stroke="#334155" stroke-width="1"/>
  <circle cx="52" cy="50" r="5" fill="#ef4444"/>
  <circle cx="68" cy="50" r="5" fill="#eab308"/>
  <circle cx="84" cy="50" r="5" fill="#22c55e"/>
  <line x1="30" y1="65" x2="370" y2="65" stroke="#334155" stroke-width="1"/>
  <rect x="50" y="80" width="120" height="10" rx="3" fill="#2563eb" opacity="0.7"/>
  <rect x="50" y="100" width="180" height="8" rx="3" fill="#334155"/>
  <rect x="50" y="116" width="150" height="8" rx="3" fill="#334155"/>
  <rect x="50" y="132" width="200" height="8" rx="3" fill="#22c55e" opacity="0.5"/>
  <rect x="50" y="148" width="100" height="8" rx="3" fill="#334155"/>
  <rect x="50" y="164" width="170" height="8" rx="3" fill="#06b6d4" opacity="0.5"/>
  <rect x="50" y="180" width="130" height="8" rx="3" fill="#334155"/>
  <path d="M300 140 L320 120 L340 140 L330 140 L330 170 L310 170 L310 140 Z" fill="#2563eb" opacity="0.3"/>
  <path d="M310 155 L320 145 L330 155" stroke="#22c55e" stroke-width="2" fill="none" stroke-linecap="round"/>
</svg>
